<svg width="163" height="41" viewBox="0 0 163 41" fill="none" xmlns="http://www.w3.org/2000/svg">
<path d="M28.792 20.0412C25.8239 23.3575 21.5105 25.4445 16.7097 25.4445C11.9089 25.4445 7.59557 23.3575 4.62744 20.0412C7.59557 16.725 11.9089 14.6379 16.7097 14.6379C21.5105 14.6379 25.8239 16.725 28.792 20.0412Z" fill="white"/>
<path fill-rule="evenodd" clip-rule="evenodd" d="M0.5 30.8478C0.5 21.8953 7.75738 14.6379 16.7098 14.6379C11.909 14.6379 7.59569 16.725 4.62756 20.0412C7.59569 23.3575 11.909 25.4445 16.7098 25.4445C21.5106 25.4445 25.824 23.3575 28.7921 20.0412C31.3589 22.9091 32.9196 26.6961 32.9196 30.8478V36.9715C32.9196 37.7672 32.2745 38.4123 31.4788 38.4123H1.94087C1.1451 38.4123 0.5 37.7672 0.5 36.9715V30.8478ZM28.7921 20.0412C28.7921 20.0412 28.7921 20.0412 28.7921 20.0412V20.0412Z" fill="#7CD4FD"/>
<path fill-rule="evenodd" clip-rule="evenodd" d="M10.6297 24.2657C8.31516 23.3285 6.26632 21.8723 4.62756 20.0413C7.59568 16.725 11.909 14.638 16.7098 14.638C21.5106 14.638 25.824 16.725 28.7921 20.0413C28.7921 20.0413 28.7921 20.0413 28.7921 20.0413C31.3589 17.1734 32.9196 13.3864 32.9196 9.23474V3.11104C32.9196 2.31527 32.2745 1.67017 31.4788 1.67017L1.94087 1.67017C1.1451 1.67017 0.500001 2.31527 0.500001 3.11104L0.5 9.23474C0.499999 16.037 4.68991 21.8607 10.6297 24.2657Z" fill="#0BA5EC"/>
<path d="M58.2388 12.0716V28.3919H54.9654V21.4476H47.9743V28.3919H44.7009V12.0716H47.9743V18.7821H54.9654V12.0716H58.2388Z" fill="#101828"/>
<path d="M67.2125 28.6023C65.9655 28.6023 64.8432 28.3295 63.8456 27.784C62.848 27.2228 62.0608 26.4356 61.484 25.4224C60.9229 24.4092 60.6423 23.2402 60.6423 21.9152C60.6423 20.5903 60.9307 19.4212 61.5074 18.408C62.0997 17.3948 62.9025 16.6154 63.9157 16.0698C64.9289 15.5087 66.059 15.2281 67.306 15.2281C68.553 15.2281 69.6831 15.5087 70.6963 16.0698C71.7095 16.6154 72.5045 17.3948 73.0812 18.408C73.6735 19.4212 73.9697 20.5903 73.9697 21.9152C73.9697 23.2402 73.6658 24.4092 73.0578 25.4224C72.4655 26.4356 71.655 27.2228 70.6262 27.784C69.613 28.3295 68.4751 28.6023 67.2125 28.6023ZM67.2125 25.7498C67.8048 25.7498 68.3582 25.6095 68.8726 25.3289C69.4025 25.0327 69.8234 24.5963 70.1352 24.0195C70.4469 23.4428 70.6028 22.7414 70.6028 21.9152C70.6028 20.6838 70.2754 19.7407 69.6208 19.0861C68.9817 18.4158 68.1945 18.0807 67.2592 18.0807C66.324 18.0807 65.5368 18.4158 64.8977 19.0861C64.2742 19.7407 63.9625 20.6838 63.9625 21.9152C63.9625 23.1466 64.2664 24.0975 64.8743 24.7678C65.4978 25.4224 66.2772 25.7498 67.2125 25.7498Z" fill="#101828"/>
<path d="M88.5994 15.4385V28.3919H85.3026V26.7552C84.8817 27.3163 84.3284 27.7606 83.6425 28.0879C82.9722 28.3997 82.2396 28.5555 81.4446 28.5555C80.4314 28.5555 79.5352 28.3451 78.7558 27.9242C77.9764 27.4878 77.3607 26.8565 76.9086 26.0303C76.4722 25.1886 76.254 24.191 76.254 23.0375V15.4385H79.5274V22.5699C79.5274 23.5987 79.7846 24.3936 80.299 24.9548C80.8133 25.5004 81.5148 25.7732 82.4033 25.7732C83.3074 25.7732 84.0166 25.5004 84.531 24.9548C85.0454 24.3936 85.3026 23.5987 85.3026 22.5699V15.4385H88.5994Z" fill="#101828"/>
<path d="M95.1025 17.4494C95.5234 16.7635 96.0689 16.2257 96.7392 15.836C97.4251 15.4463 98.2044 15.2515 99.0773 15.2515V18.6886H98.2122C97.1834 18.6886 96.4041 18.9302 95.8741 19.4134C95.3597 19.8966 95.1025 20.7383 95.1025 21.9386V28.3919H91.8291V15.4385H95.1025V17.4494Z" fill="#101828"/>
<path d="M106.356 15.2281C107.322 15.2281 108.172 15.423 108.904 15.8127C109.637 16.1868 110.214 16.6778 110.635 17.2857V15.4385H113.931V28.4854C113.931 29.6857 113.69 30.7534 113.207 31.6887C112.723 32.6395 111.999 33.3877 111.032 33.9333C110.066 34.4944 108.897 34.775 107.525 34.775C105.686 34.775 104.174 34.3464 102.989 33.489C101.82 32.6317 101.157 31.4626 101.002 29.9818H104.252C104.423 30.5741 104.789 31.0418 105.351 31.3847C105.927 31.7432 106.621 31.9225 107.431 31.9225C108.382 31.9225 109.154 31.6341 109.746 31.0574C110.339 30.4962 110.635 29.6389 110.635 28.4854V26.4746C110.214 27.0825 109.629 27.5891 108.881 27.9944C108.148 28.3997 107.307 28.6023 106.356 28.6023C105.265 28.6023 104.267 28.3217 103.363 27.7606C102.459 27.1994 101.742 26.4122 101.212 25.3991C100.698 24.3703 100.44 23.1934 100.44 21.8685C100.44 20.5591 100.698 19.3978 101.212 18.3846C101.742 17.3714 102.451 16.592 103.34 16.0465C104.244 15.5009 105.249 15.2281 106.356 15.2281ZM110.635 21.9152C110.635 21.1202 110.479 20.4422 110.167 19.881C109.855 19.3043 109.434 18.8678 108.904 18.5717C108.374 18.2599 107.806 18.104 107.198 18.104C106.59 18.104 106.029 18.2521 105.514 18.5483C105 18.8444 104.579 19.2809 104.252 19.8576C103.94 20.4188 103.784 21.0891 103.784 21.8685C103.784 22.6478 103.94 23.3337 104.252 23.926C104.579 24.5028 105 24.947 105.514 25.2588C106.044 25.5705 106.605 25.7264 107.198 25.7264C107.806 25.7264 108.374 25.5783 108.904 25.2821C109.434 24.9704 109.855 24.5339 110.167 23.9728C110.479 23.396 110.635 22.7102 110.635 21.9152Z" fill="#101828"/>
<path d="M120.402 11.0896V28.3919H117.129V11.0896H120.402Z" fill="#101828"/>
<path d="M122.794 21.8685C122.794 20.5591 123.052 19.3978 123.566 18.3846C124.096 17.3714 124.805 16.592 125.694 16.0465C126.598 15.5009 127.603 15.2281 128.71 15.2281C129.676 15.2281 130.518 15.423 131.235 15.8127C131.968 16.2023 132.552 16.6934 132.989 17.2857V15.4385H136.285V28.3919H132.989V26.498C132.568 27.1059 131.983 27.6125 131.235 28.0178C130.502 28.4075 129.653 28.6023 128.686 28.6023C127.595 28.6023 126.598 28.3217 125.694 27.7606C124.805 27.1994 124.096 26.4122 123.566 25.3991C123.052 24.3703 122.794 23.1934 122.794 21.8685ZM132.989 21.9152C132.989 21.1202 132.833 20.4422 132.521 19.881C132.209 19.3043 131.788 18.8678 131.258 18.5717C130.728 18.2599 130.159 18.104 129.552 18.104C128.944 18.104 128.382 18.2521 127.868 18.5483C127.354 18.8444 126.933 19.2809 126.605 19.8576C126.294 20.4188 126.138 21.0891 126.138 21.8685C126.138 22.6478 126.294 23.3337 126.605 23.926C126.933 24.5028 127.354 24.947 127.868 25.2588C128.398 25.5705 128.959 25.7264 129.552 25.7264C130.159 25.7264 130.728 25.5783 131.258 25.2821C131.788 24.9704 132.209 24.5339 132.521 23.9728C132.833 23.396 132.989 22.7102 132.989 21.9152Z" fill="#101828"/>
<path d="M144.439 28.6023C143.379 28.6023 142.428 28.4153 141.587 28.0412C140.745 27.6515 140.075 27.1293 139.576 26.4746C139.093 25.8199 138.828 25.0951 138.781 24.3001H142.078C142.14 24.7989 142.382 25.212 142.803 25.5393C143.239 25.8667 143.777 26.0303 144.416 26.0303C145.039 26.0303 145.523 25.9056 145.866 25.6562C146.224 25.4068 146.403 25.0873 146.403 24.6976C146.403 24.2767 146.185 23.965 145.749 23.7623C145.328 23.5441 144.65 23.3103 143.714 23.0609C142.748 22.8271 141.953 22.5855 141.33 22.3361C140.722 22.0867 140.192 21.7048 139.74 21.1904C139.303 20.676 139.085 19.9823 139.085 19.1094C139.085 18.3924 139.288 17.7377 139.693 17.1454C140.114 16.5531 140.706 16.0854 141.47 15.7425C142.249 15.3996 143.161 15.2281 144.205 15.2281C145.749 15.2281 146.98 15.6178 147.9 16.3972C148.819 17.161 149.326 18.1976 149.42 19.5069H146.286C146.24 18.9925 146.021 18.5873 145.632 18.2911C145.258 17.9793 144.751 17.8235 144.112 17.8235C143.52 17.8235 143.06 17.9326 142.732 18.1508C142.421 18.369 142.265 18.673 142.265 19.0627C142.265 19.4991 142.483 19.8343 142.92 20.0681C143.356 20.2863 144.034 20.5123 144.954 20.7461C145.889 20.98 146.661 21.2216 147.268 21.471C147.876 21.7204 148.399 22.1101 148.835 22.64C149.287 23.1544 149.521 23.8403 149.536 24.6976C149.536 25.4458 149.326 26.1161 148.905 26.7084C148.5 27.3007 147.908 27.7684 147.128 28.1113C146.364 28.4386 145.468 28.6023 144.439 28.6023Z" fill="#101828"/>
<path d="M157.18 28.6023C156.12 28.6023 155.17 28.4153 154.328 28.0412C153.486 27.6515 152.816 27.1293 152.317 26.4746C151.834 25.8199 151.569 25.0951 151.522 24.3001H154.819C154.881 24.7989 155.123 25.212 155.544 25.5393C155.98 25.8667 156.518 26.0303 157.157 26.0303C157.78 26.0303 158.264 25.9056 158.607 25.6562C158.965 25.4068 159.144 25.0873 159.144 24.6976C159.144 24.2767 158.926 23.965 158.49 23.7623C158.069 23.5441 157.391 23.3103 156.456 23.0609C155.489 22.8271 154.694 22.5855 154.071 22.3361C153.463 22.0867 152.933 21.7048 152.481 21.1904C152.044 20.676 151.826 19.9823 151.826 19.1094C151.826 18.3924 152.029 17.7377 152.434 17.1454C152.855 16.5531 153.447 16.0854 154.211 15.7425C154.99 15.3996 155.902 15.2281 156.947 15.2281C158.49 15.2281 159.721 15.6178 160.641 16.3972C161.56 17.161 162.067 18.1976 162.161 19.5069H159.027C158.981 18.9925 158.762 18.5873 158.373 18.2911C157.999 17.9793 157.492 17.8235 156.853 17.8235C156.261 17.8235 155.801 17.9326 155.474 18.1508C155.162 18.369 155.006 18.673 155.006 19.0627C155.006 19.4991 155.224 19.8343 155.661 20.0681C156.097 20.2863 156.775 20.5123 157.695 20.7461C158.63 20.98 159.402 21.2216 160.009 21.471C160.617 21.7204 161.14 22.1101 161.576 22.64C162.028 23.1544 162.262 23.8403 162.277 24.6976C162.277 25.4458 162.067 26.1161 161.646 26.7084C161.241 27.3007 160.649 27.7684 159.869 28.1113C159.105 28.4386 158.209 28.6023 157.18 28.6023Z" fill="#101828"/>
</svg>
