<svg width="152" height="40" viewBox="0 0 152 40" fill="none" xmlns="http://www.w3.org/2000/svg">
<path d="M13.4663 27.8212C20.6275 27.8212 26.4328 22.0159 26.4328 14.8548C26.4328 14.0432 26.3582 13.249 26.2155 12.4787C25.4453 12.336 24.6511 12.2615 23.8395 12.2615C16.6783 12.2615 10.873 18.0667 10.873 25.2279C10.873 26.0395 10.9476 26.8337 11.0903 27.604C11.8606 27.7466 12.6547 27.8212 13.4663 27.8212Z" fill="#175CD3"/>
<path fill-rule="evenodd" clip-rule="evenodd" d="M11.0904 27.6041C5.06398 26.488 0.5 21.2044 0.5 14.8549C0.5 7.6937 6.30527 1.88843 13.4664 1.88843C19.816 1.88843 25.0996 6.45241 26.2157 12.4788C25.4454 12.3361 24.6512 12.2616 23.8396 12.2616C16.6784 12.2616 10.8732 18.0669 10.8732 25.228C10.8732 26.0396 10.9477 26.8338 11.0904 27.6041Z" fill="#1570EF"/>
<path fill-rule="evenodd" clip-rule="evenodd" d="M13.4664 27.8213C20.6276 27.8213 26.4328 22.016 26.4328 14.8548C26.4328 14.0432 26.3583 13.249 26.2156 12.4788C32.242 13.5948 36.806 18.8784 36.806 25.228C36.806 32.3891 31.0007 38.1944 23.8396 38.1944C17.49 38.1944 12.2064 33.6304 11.0903 27.604C11.8606 27.7467 12.6548 27.8213 13.4664 27.8213Z" fill="#2E90FA"/>
<path d="M61.7482 24.0877C61.2861 25.5817 60.4775 26.6984 59.3223 27.4377C58.1671 28.1616 56.8194 28.5236 55.2791 28.5236C53.7697 28.5236 52.4605 28.2078 51.3515 27.5763C50.2579 26.9448 49.4108 26.0438 48.8101 24.8732C48.2248 23.7026 47.9321 22.301 47.9321 20.6683C47.9321 19.0356 48.2325 17.634 48.8332 16.4634C49.4339 15.2928 50.281 14.3918 51.3746 13.7603C52.4682 13.1287 53.7543 12.813 55.2329 12.813C56.7886 12.813 58.1209 13.1441 59.2299 13.8065C60.3543 14.4534 61.1244 15.4391 61.5403 16.7637L58.6523 17.9882C58.3905 17.0641 57.99 16.4095 57.4509 16.0244C56.9118 15.624 56.2187 15.4237 55.3716 15.4237C54.1086 15.4237 53.0997 15.8781 52.345 16.7868C51.6056 17.6802 51.236 18.974 51.236 20.6683C51.236 22.3472 51.5902 23.641 52.2988 24.5497C53.0073 25.4585 54.0315 25.9129 55.3716 25.9129C56.2033 25.9129 56.9195 25.6895 57.5202 25.2428C58.1363 24.7962 58.5676 24.1185 58.814 23.2097L61.7482 24.0877Z" fill="#101828"/>
<path d="M65.7363 15.0772C64.4271 15.0772 63.7725 14.515 63.7725 13.3906C63.7725 12.2508 64.4271 11.6809 65.7363 11.6809C67.0455 11.6809 67.7002 12.2508 67.7002 13.3906C67.7002 14.515 67.0455 15.0772 65.7363 15.0772ZM67.3074 16.7406V28.2925H64.1422V16.7406H67.3074Z" fill="#101828"/>
<path d="M70.6627 28.2925V16.7406H73.412L73.62 19.0048C73.9126 18.2193 74.3516 17.6109 74.9369 17.1796C75.5376 16.7329 76.2923 16.5096 77.2011 16.5096C77.7401 16.5096 78.156 16.5943 78.4487 16.7637L78.079 19.4207C77.925 19.3745 77.7324 19.336 77.5014 19.3052C77.2858 19.259 77.0008 19.2359 76.6466 19.2359C76.1691 19.2359 75.7147 19.3514 75.2834 19.5824C74.8676 19.798 74.521 20.1369 74.2438 20.599C73.9665 21.0457 73.8279 21.6155 73.8279 22.3087V28.2925H70.6627Z" fill="#101828"/>
<path d="M85.4285 16.5096C86.9688 16.5096 88.1625 16.8408 89.0096 17.5031C89.8722 18.1654 90.4421 18.9663 90.7193 19.9059L87.762 20.9686C87.454 19.567 86.6916 18.8662 85.4748 18.8662C84.5968 18.8662 83.9114 19.1742 83.4185 19.7903C82.941 20.4064 82.7023 21.3229 82.7023 22.5397C82.7023 23.7719 82.9487 24.6884 83.4416 25.2891C83.9499 25.8743 84.6353 26.167 85.4979 26.167C86.8379 26.167 87.6388 25.4816 87.9007 24.1108L90.7655 25.0349C90.5037 26.0669 89.9184 26.9063 89.0096 27.5532C88.1163 28.2001 86.9534 28.5236 85.521 28.5236C84.3196 28.5236 83.2645 28.2848 82.3557 27.8074C81.4624 27.3299 80.7693 26.6445 80.2764 25.7511C79.7835 24.8578 79.5371 23.7796 79.5371 22.5166C79.5371 21.2536 79.7835 20.1754 80.2764 19.2821C80.7847 18.3887 81.4778 17.7033 82.3557 17.2258C83.2491 16.7483 84.2734 16.5096 85.4285 16.5096Z" fill="#101828"/>
<path d="M98.4927 16.5096C99.6479 16.5096 100.672 16.7483 101.565 17.2258C102.459 17.7033 103.152 18.3887 103.645 19.2821C104.153 20.1754 104.407 21.2536 104.407 22.5166C104.407 23.7796 104.153 24.8578 103.645 25.7511C103.152 26.6445 102.459 27.3299 101.565 27.8074C100.672 28.2848 99.6479 28.5236 98.4927 28.5236C97.3221 28.5236 96.2901 28.2848 95.3968 27.8074C94.5188 27.3299 93.8257 26.6445 93.3174 25.7511C92.8245 24.8578 92.5781 23.7796 92.5781 22.5166C92.5781 21.2536 92.8245 20.1754 93.3174 19.2821C93.8257 18.3887 94.5188 17.7033 95.3968 17.2258C96.2901 16.7483 97.3221 16.5096 98.4927 16.5096ZM98.4927 18.8662C97.6301 18.8662 96.9524 19.1742 96.4595 19.7903C95.9821 20.391 95.7433 21.2998 95.7433 22.5166C95.7433 23.7334 95.9821 24.6498 96.4595 25.2659C96.9524 25.8666 97.6301 26.167 98.4927 26.167C99.3398 26.167 100.002 25.8666 100.48 25.2659C100.972 24.6498 101.219 23.7334 101.219 22.5166C101.219 21.2998 100.972 20.391 100.48 19.7903C100.002 19.1742 99.3398 18.8662 98.4927 18.8662Z" fill="#101828"/>
<path d="M112.323 16.5096C113.479 16.5096 114.503 16.7483 115.396 17.2258C116.29 17.7033 116.983 18.3887 117.476 19.2821C117.984 20.1754 118.238 21.2536 118.238 22.5166C118.238 23.7796 117.984 24.8578 117.476 25.7511C116.983 26.6445 116.29 27.3299 115.396 27.8074C114.503 28.2848 113.479 28.5236 112.323 28.5236C111.153 28.5236 110.121 28.2848 109.227 27.8074C108.35 27.3299 107.656 26.6445 107.148 25.7511C106.655 24.8578 106.409 23.7796 106.409 22.5166C106.409 21.2536 106.655 20.1754 107.148 19.2821C107.656 18.3887 108.35 17.7033 109.227 17.2258C110.121 16.7483 111.153 16.5096 112.323 16.5096ZM112.323 18.8662C111.461 18.8662 110.783 19.1742 110.29 19.7903C109.813 20.391 109.574 21.2998 109.574 22.5166C109.574 23.7334 109.813 24.6498 110.29 25.2659C110.783 25.8666 111.461 26.167 112.323 26.167C113.171 26.167 113.833 25.8666 114.31 25.2659C114.803 24.6498 115.05 23.7334 115.05 22.5166C115.05 21.2998 114.803 20.391 114.31 19.7903C113.833 19.1742 113.171 18.8662 112.323 18.8662Z" fill="#101828"/>
<path d="M124.005 11.6809V24.7346C124.005 25.2736 124.098 25.651 124.283 25.8666C124.467 26.0823 124.776 26.1901 125.207 26.1901C125.469 26.1901 125.684 26.1747 125.854 26.1439C126.023 26.1131 126.239 26.0515 126.501 25.9591L126.223 28.0384C125.962 28.1924 125.63 28.3079 125.23 28.385C124.845 28.4774 124.46 28.5236 124.075 28.5236C122.95 28.5236 122.126 28.254 121.603 27.715C121.094 27.1605 120.84 26.2825 120.84 25.0811V11.6809H124.005Z" fill="#101828"/>
<path d="M133.624 28.5236C131.807 28.5236 130.351 27.9999 129.258 26.9525C128.164 25.8897 127.617 24.4111 127.617 22.5166C127.617 21.2536 127.864 20.1754 128.357 19.2821C128.85 18.3887 129.535 17.7033 130.413 17.2258C131.306 16.7483 132.323 16.5096 133.463 16.5096C134.633 16.5096 135.627 16.7483 136.443 17.2258C137.259 17.6879 137.883 18.3271 138.314 19.1434C138.746 19.9444 138.961 20.8608 138.961 21.8928C138.961 22.2008 138.954 22.4935 138.938 22.7707C138.923 23.048 138.9 23.2944 138.869 23.5101H130.713C130.837 24.4034 131.145 25.0734 131.637 25.5201C132.146 25.9514 132.8 26.167 133.601 26.167C134.279 26.167 134.826 26.0361 135.242 25.7742C135.658 25.5124 135.981 25.1504 136.212 24.6884L138.73 25.6587C138.361 26.5675 137.714 27.276 136.79 27.7843C135.865 28.2771 134.81 28.5236 133.624 28.5236ZM133.44 18.8431C131.945 18.8431 131.044 19.6671 130.736 21.3152H135.935C135.842 20.5143 135.58 19.9059 135.149 19.49C134.733 19.0587 134.163 18.8431 133.44 18.8431Z" fill="#101828"/>
<path d="M146.265 28.5236C145.094 28.5236 144.023 28.3156 143.053 27.8998C142.098 27.4839 141.32 26.8986 140.72 26.1439L142.545 24.2956C142.914 24.8501 143.407 25.3045 144.023 25.6587C144.64 26.013 145.371 26.1901 146.218 26.1901C146.819 26.1901 147.296 26.1054 147.651 25.936C148.02 25.7511 148.205 25.4662 148.205 25.0811C148.205 24.8347 148.121 24.6267 147.951 24.4573C147.782 24.2725 147.443 24.1262 146.935 24.0183L144.901 23.6025C143.561 23.3252 142.606 22.9094 142.037 22.3549C141.482 21.785 141.205 21.0534 141.205 20.16C141.205 19.5285 141.39 18.9355 141.759 18.381C142.144 17.8265 142.714 17.3798 143.469 17.041C144.224 16.6867 145.163 16.5096 146.288 16.5096C148.629 16.5096 150.308 17.2258 151.324 18.6583L149.43 20.5066C149.091 19.9675 148.644 19.5593 148.09 19.2821C147.551 18.9894 146.981 18.8431 146.38 18.8431C145.025 18.8431 144.347 19.2205 144.347 19.9752C144.347 20.2216 144.455 20.4373 144.67 20.6221C144.886 20.7915 145.279 20.9378 145.849 21.0611L148.205 21.5462C149.345 21.7773 150.161 22.17 150.654 22.7245C151.147 23.2636 151.394 23.9182 151.394 24.6884C151.394 25.7973 150.947 26.7138 150.054 27.4377C149.176 28.1616 147.913 28.5236 146.265 28.5236Z" fill="#101828"/>
</svg>
