<svg width="156" height="40" viewBox="0 0 156 40" fill="none" xmlns="http://www.w3.org/2000/svg">
<path fill-rule="evenodd" clip-rule="evenodd" d="M18.7353 30.3745C24.4422 30.3745 29.0686 25.7481 29.0686 20.0412C29.0686 14.3343 24.4422 9.70787 18.7353 9.70787C13.0283 9.70787 8.40196 14.3343 8.40196 20.0412C8.40196 25.7481 13.0283 30.3745 18.7353 30.3745ZM18.7353 38.2765C28.8064 38.2765 36.9706 30.1123 36.9706 20.0412C36.9706 9.97013 28.8064 1.80591 18.7353 1.80591C8.66422 1.80591 0.5 9.97013 0.5 20.0412C0.5 30.1123 8.66422 38.2765 18.7353 38.2765Z" fill="#6938EF"/>
<path d="M18.9438 20.4404C20.8429 18.5414 23.9218 18.5414 25.8208 20.4404L35.2766 29.8962C37.1756 31.7953 37.1756 34.8742 35.2766 36.7732C33.3776 38.6722 30.2987 38.6722 28.3997 36.7732L18.9438 27.3174C17.0448 25.4184 17.0448 22.3395 18.9438 20.4404Z" fill="#F670C7"/>
<path d="M21.5991 29.9725L27.6046 35.9779C30.4851 34.3714 32.885 32.0066 34.5341 29.1535L28.5778 23.1973C27.5316 26.4625 24.9056 29.0208 21.5991 29.9725Z" fill="#6519BA"/>
<path d="M66.4123 30.0707C65.8863 30.7206 65.2442 31.2157 64.486 31.5561C63.7433 31.8965 62.9233 32.0667 62.0259 32.0667C60.8191 32.0667 59.7283 31.8036 58.7535 31.2776C57.7787 30.767 56.6647 29.8541 55.4115 28.539C53.9416 28.3533 52.6264 27.8814 51.466 27.1232C50.3211 26.3651 49.4237 25.3903 48.7738 24.199C48.1394 22.9921 47.8223 21.6615 47.8223 20.2071C47.8223 18.6134 48.2013 17.1822 48.9595 15.9135C49.7331 14.6293 50.793 13.6236 52.1391 12.8964C53.5006 12.1692 55.0247 11.8056 56.7111 11.8056C58.3976 11.8056 59.9139 12.1692 61.26 12.8964C62.6061 13.6236 63.666 14.6293 64.4396 15.9135C65.2132 17.1822 65.6 18.6134 65.6 20.2071C65.6 22.0947 65.0662 23.7503 63.9986 25.1737C62.9465 26.5972 61.5463 27.5874 59.7979 28.1444C60.1847 28.5467 60.556 28.8329 60.9119 29.0031C61.2832 29.1888 61.6778 29.2816 62.0955 29.2816C63.1012 29.2816 63.9832 28.8794 64.7413 28.0748L66.4123 30.0707ZM51.6285 20.2071C51.6285 21.2128 51.8451 22.1102 52.2783 22.8993C52.727 23.6884 53.3382 24.3073 54.1118 24.756C54.8854 25.1892 55.7519 25.4058 56.7111 25.4058C57.6704 25.4058 58.5369 25.1892 59.3105 24.756C60.0841 24.3073 60.6875 23.6884 61.1208 22.8993C61.5695 22.1102 61.7938 21.2128 61.7938 20.2071C61.7938 19.2014 61.5695 18.304 61.1208 17.5149C60.6875 16.7258 60.0841 16.1146 59.3105 15.6814C58.5369 15.2327 57.6704 15.0084 56.7111 15.0084C55.7519 15.0084 54.8854 15.2327 54.1118 15.6814C53.3382 16.1146 52.727 16.7258 52.2783 17.5149C51.8451 18.304 51.6285 19.2014 51.6285 20.2071Z" fill="#101828"/>
<path d="M80.7494 15.8439V28.3301H77.3145V26.8447C76.8349 27.3863 76.2624 27.804 75.5971 28.098C74.9318 28.3765 74.2123 28.5158 73.4387 28.5158C71.7986 28.5158 70.499 28.0439 69.5397 27.1C68.5804 26.1562 68.1007 24.756 68.1007 22.8993V15.8439H71.7213V22.3655C71.7213 24.3769 72.5645 25.3826 74.251 25.3826C75.1175 25.3826 75.8137 25.1041 76.3398 24.5471C76.8658 23.9746 77.1289 23.1314 77.1289 22.0174V15.8439H80.7494Z" fill="#101828"/>
<path d="M90.045 28.5158C88.7298 28.5158 87.5462 28.245 86.4941 27.7035C85.4574 27.1465 84.6451 26.3806 84.0572 25.4058C83.4692 24.431 83.1753 23.3248 83.1753 22.087C83.1753 20.8492 83.4692 19.7429 84.0572 18.7682C84.6451 17.7934 85.4574 17.0353 86.4941 16.4937C87.5462 15.9367 88.7298 15.6582 90.045 15.6582C91.3601 15.6582 92.536 15.9367 93.5727 16.4937C94.6093 17.0353 95.4216 17.7934 96.0096 18.7682C96.5975 19.7429 96.8915 20.8492 96.8915 22.087C96.8915 23.3248 96.5975 24.431 96.0096 25.4058C95.4216 26.3806 94.6093 27.1465 93.5727 27.7035C92.536 28.245 91.3601 28.5158 90.045 28.5158ZM90.045 25.5451C90.9733 25.5451 91.7315 25.2356 92.3194 24.6167C92.9228 23.9824 93.2246 23.1391 93.2246 22.087C93.2246 21.0349 92.9228 20.1994 92.3194 19.5805C91.7315 18.9461 90.9733 18.6289 90.045 18.6289C89.1166 18.6289 88.3508 18.9461 87.7473 19.5805C87.1439 20.1994 86.8422 21.0349 86.8422 22.087C86.8422 23.1391 87.1439 23.9824 87.7473 24.6167C88.3508 25.2356 89.1166 25.5451 90.045 25.5451Z" fill="#101828"/>
<path d="M107.365 27.7267C107.009 27.9897 106.568 28.1908 106.042 28.3301C105.531 28.4539 104.99 28.5158 104.417 28.5158C102.932 28.5158 101.779 28.1367 100.959 27.3785C100.155 26.6204 99.7525 25.5064 99.7525 24.0365V18.9074H97.8262V16.1224H99.7525V13.0821H103.373V16.1224H106.483V18.9074H103.373V23.9901C103.373 24.5161 103.505 24.9262 103.768 25.2201C104.046 25.4986 104.433 25.6379 104.928 25.6379C105.5 25.6379 105.988 25.4832 106.39 25.1737L107.365 27.7267Z" fill="#101828"/>
<path d="M109.397 15.8439H113.018V28.3301H109.397V15.8439ZM111.208 14.1032C110.542 14.1032 110.001 13.9098 109.583 13.523C109.165 13.1362 108.956 12.6566 108.956 12.0841C108.956 11.5116 109.165 11.032 109.583 10.6452C110.001 10.2583 110.542 10.0649 111.208 10.0649C111.873 10.0649 112.414 10.2506 112.832 10.6219C113.25 10.9933 113.459 11.4575 113.459 12.0145C113.459 12.6179 113.25 13.1207 112.832 13.523C112.414 13.9098 111.873 14.1032 111.208 14.1032Z" fill="#101828"/>
<path d="M128.609 22.1334C128.609 22.1798 128.586 22.5047 128.539 23.1082H119.093C119.264 23.8818 119.666 24.4929 120.3 24.9416C120.935 25.3903 121.724 25.6147 122.668 25.6147C123.317 25.6147 123.89 25.5219 124.385 25.3362C124.896 25.135 125.367 24.8256 125.801 24.4078L127.727 26.4966C126.551 27.8427 124.834 28.5158 122.575 28.5158C121.167 28.5158 119.921 28.245 118.838 27.7035C117.755 27.1465 116.92 26.3806 116.332 25.4058C115.744 24.431 115.45 23.3248 115.45 22.087C115.45 20.8647 115.736 19.7661 116.308 18.7914C116.896 17.8011 117.693 17.0353 118.699 16.4937C119.72 15.9367 120.857 15.6582 122.111 15.6582C123.333 15.6582 124.439 15.9212 125.429 16.4473C126.42 16.9734 127.193 17.7315 127.75 18.7217C128.323 19.6965 128.609 20.8337 128.609 22.1334ZM122.134 18.3968C121.314 18.3968 120.625 18.6289 120.068 19.0931C119.511 19.5572 119.171 20.1916 119.047 20.9962H125.197C125.073 20.2071 124.733 19.5805 124.176 19.1163C123.619 18.6366 122.938 18.3968 122.134 18.3968Z" fill="#101828"/>
<path d="M138.609 15.6582C140.156 15.6582 141.401 16.1224 142.345 17.0507C143.304 17.9791 143.784 19.3561 143.784 21.1818V28.3301H140.164V21.7389C140.164 20.7486 139.947 20.0137 139.514 19.534C139.08 19.0389 138.454 18.7914 137.634 18.7914C136.721 18.7914 135.994 19.0776 135.452 19.6501C134.911 20.2071 134.64 21.0426 134.64 22.1566V28.3301H131.019V15.8439H134.477V17.306C134.957 16.78 135.553 16.3777 136.264 16.0992C136.976 15.8052 137.758 15.6582 138.609 15.6582Z" fill="#101828"/>
<path d="M155.119 27.7267C154.763 27.9897 154.322 28.1908 153.796 28.3301C153.286 28.4539 152.744 28.5158 152.172 28.5158C150.686 28.5158 149.534 28.1367 148.714 27.3785C147.909 26.6204 147.507 25.5064 147.507 24.0365V18.9074H145.581V16.1224H147.507V13.0821H151.127V16.1224H154.237V18.9074H151.127V23.9901C151.127 24.5161 151.259 24.9262 151.522 25.2201C151.8 25.4986 152.187 25.6379 152.682 25.6379C153.255 25.6379 153.742 25.4832 154.145 25.1737L155.119 27.7267Z" fill="#101828"/>
</svg>
