<svg width="115" height="38" viewBox="0 0 115 38" fill="none" xmlns="http://www.w3.org/2000/svg">
<path d="M10.8674 17.7281C11.5094 15.3323 13.9721 12.8697 16.3678 12.2276L31.3042 8.22483C33.7 7.58279 35.1216 9.00447 34.4796 11.4002L30.4768 26.3366C29.8348 28.7324 27.3721 31.195 24.9764 31.837L10.04 35.8398C7.64424 36.4819 6.22256 35.0602 6.8646 32.6644L10.8674 17.7281Z" fill="#9E77ED"/>
<path d="M4.87947 11.74C5.52151 9.34426 7.98415 6.88162 10.3799 6.23958L25.3163 2.23679C27.7121 1.59475 29.1337 3.01643 28.4917 5.41221L24.4889 20.3485C23.8469 22.7443 21.3842 25.207 18.9885 25.849L4.0521 29.8518C1.65633 30.4938 0.234645 29.0721 0.876688 26.6764L4.87947 11.74Z" fill="#6941C6"/>
<path d="M48.3581 24.8382H53.4959V26.8496H45.8657V11.6548H48.3581V24.8382Z" fill="#101828"/>
<path d="M54.7495 20.7717C54.7495 19.5619 54.9972 18.4906 55.4928 17.5578C56.0029 16.625 56.688 15.9035 57.5479 15.3934C58.4224 14.8686 59.3844 14.6063 60.4338 14.6063C61.3812 14.6063 62.2047 14.7958 62.9044 15.1747C63.6185 15.5391 64.187 15.9982 64.6097 16.5521V14.8031H67.1239V26.8496H64.6097V25.0568C64.187 25.6252 63.6113 26.0989 62.8825 26.4779C62.1537 26.8569 61.3229 27.0463 60.3901 27.0463C59.3553 27.0463 58.4079 26.784 57.5479 26.2593C56.688 25.72 56.0029 24.9766 55.4928 24.0293C54.9972 23.0673 54.7495 21.9814 54.7495 20.7717ZM64.6097 20.8154C64.6097 19.9846 64.4348 19.2631 64.085 18.6509C63.7497 18.0388 63.3052 17.5724 62.7513 17.2517C62.1975 16.9311 61.5999 16.7707 60.9585 16.7707C60.3172 16.7707 59.7196 16.9311 59.1658 17.2517C58.6119 17.5578 58.1601 18.0169 57.8103 18.6291C57.475 19.2267 57.3074 19.9409 57.3074 20.7717C57.3074 21.6025 57.475 22.3312 57.8103 22.958C58.1601 23.5847 58.6119 24.0657 59.1658 24.4009C59.7342 24.7216 60.3318 24.8819 60.9585 24.8819C61.5999 24.8819 62.1975 24.7216 62.7513 24.4009C63.3052 24.0803 63.7497 23.6139 64.085 23.0017C64.4348 22.3749 64.6097 21.6462 64.6097 20.8154Z" fill="#101828"/>
<path d="M81.2416 14.8031L73.8519 32.5121H71.2721L73.7207 26.6528L68.9765 14.8031H71.7531L75.1418 23.9855L78.6618 14.8031H81.2416Z" fill="#101828"/>
<path d="M94.1633 20.5312C94.1633 20.983 94.1342 21.3911 94.0759 21.7555H84.8716C84.9444 22.7175 85.3015 23.49 85.9429 24.073C86.5842 24.656 87.3712 24.9475 88.3041 24.9475C89.645 24.9475 90.5924 24.3863 91.1462 23.264H93.8354C93.471 24.3718 92.8078 25.2827 91.8459 25.9969C90.8985 26.6965 89.7179 27.0463 88.3041 27.0463C87.1526 27.0463 86.1178 26.7913 85.1995 26.2811C84.2958 25.7564 83.5816 25.0277 83.0569 24.0948C82.5468 23.1474 82.2917 22.0543 82.2917 20.8154C82.2917 19.5765 82.5395 18.4906 83.0351 17.5578C83.5452 16.6104 84.2521 15.8816 85.1558 15.3715C86.074 14.8614 87.1235 14.6063 88.3041 14.6063C89.4409 14.6063 90.4539 14.8541 91.343 15.3496C92.2321 15.8452 92.9244 16.5448 93.42 17.4485C93.9156 18.3376 94.1633 19.3651 94.1633 20.5312ZM91.5616 19.7441C91.5471 18.8259 91.2191 18.0898 90.5778 17.5359C89.9365 16.9821 89.1421 16.7051 88.1947 16.7051C87.3348 16.7051 86.5987 16.9821 85.9866 17.5359C85.3744 18.0752 85.01 18.8113 84.8934 19.7441H91.5616Z" fill="#101828"/>
<path d="M99.1085 16.5521C99.4729 15.9399 99.9539 15.4662 100.551 15.131C101.164 14.7812 101.885 14.6063 102.716 14.6063V17.1861H102.082C101.105 17.1861 100.362 17.4339 99.8518 17.9295C99.3563 18.425 99.1085 19.285 99.1085 20.5093V26.8496H96.6161V14.8031H99.1085V16.5521Z" fill="#101828"/>
<path d="M109.379 27.0463C108.432 27.0463 107.579 26.8787 106.822 26.5435C106.078 26.1937 105.488 25.7273 105.051 25.1443C104.613 24.5467 104.38 23.8835 104.351 23.1547H106.931C106.975 23.6649 107.215 24.0948 107.652 24.4446C108.104 24.7799 108.665 24.9475 109.336 24.9475C110.035 24.9475 110.575 24.8163 110.954 24.554C111.347 24.277 111.544 23.9272 111.544 23.5045C111.544 23.0527 111.325 22.7175 110.888 22.4988C110.465 22.2802 109.788 22.0397 108.855 21.7774C107.951 21.5296 107.215 21.2891 106.647 21.0559C106.078 20.8227 105.583 20.4656 105.16 19.9846C104.752 19.5036 104.548 18.8696 104.548 18.0825C104.548 17.4412 104.737 16.8582 105.116 16.3335C105.495 15.7942 106.034 15.3715 106.734 15.0654C107.448 14.7593 108.264 14.6063 109.183 14.6063C110.553 14.6063 111.653 14.9561 112.484 15.6557C113.329 16.3408 113.781 17.2809 113.84 18.476H111.347C111.303 17.9368 111.085 17.5068 110.691 17.1861C110.298 16.8655 109.766 16.7051 109.095 16.7051C108.439 16.7051 107.937 16.829 107.587 17.0768C107.237 17.3246 107.062 17.6525 107.062 18.0606C107.062 18.3813 107.179 18.6509 107.412 18.8696C107.645 19.0882 107.929 19.2631 108.264 19.3943C108.6 19.5109 109.095 19.6639 109.751 19.8534C110.626 20.0866 111.34 20.3271 111.894 20.5749C112.462 20.8081 112.95 21.1579 113.359 21.6243C113.767 22.0907 113.978 22.7102 113.993 23.4827C113.993 24.1677 113.803 24.7799 113.424 25.3192C113.045 25.8585 112.506 26.2811 111.806 26.5872C111.121 26.8933 110.312 27.0463 109.379 27.0463Z" fill="#101828"/>
</svg>
