<svg width="33" height="33" viewBox="0 0 33 33" fill="none" xmlns="http://www.w3.org/2000/svg">
<path d="M12.5434 13.8855H13.8767C14.2303 13.8855 14.5695 13.7448 14.8195 13.4944C15.0696 13.244 15.21 12.9043 15.21 12.5502C15.21 12.1961 15.0696 11.8564 14.8195 11.606C14.5695 11.3556 14.2303 11.2149 13.8767 11.2149H12.5434C12.1898 11.2149 11.8506 11.3556 11.6006 11.606C11.3505 11.8564 11.21 12.1961 11.21 12.5502C11.21 12.9043 11.3505 13.244 11.6006 13.4944C11.8506 13.7448 12.1898 13.8855 12.5434 13.8855ZM12.5434 16.5561C12.1898 16.5561 11.8506 16.6968 11.6006 16.9472C11.3505 17.1976 11.21 17.5372 11.21 17.8914C11.21 18.2455 11.3505 18.5852 11.6006 18.8356C11.8506 19.086 12.1898 19.2267 12.5434 19.2267H20.5434C20.897 19.2267 21.2361 19.086 21.4862 18.8356C21.7362 18.5852 21.8767 18.2455 21.8767 17.8914C21.8767 17.5372 21.7362 17.1976 21.4862 16.9472C21.2361 16.6968 20.897 16.5561 20.5434 16.5561H12.5434ZM27.21 12.4701C27.1962 12.3474 27.1693 12.2266 27.13 12.1096V11.9894C27.0659 11.8521 26.9804 11.7259 26.8767 11.6155L18.8767 3.60371C18.7665 3.49985 18.6405 3.41421 18.5034 3.35001C18.4636 3.34435 18.4232 3.34435 18.3834 3.35001C18.2479 3.27221 18.0983 3.22228 17.9434 3.20312H9.87671C8.81584 3.20313 7.79843 3.62517 7.04828 4.37642C6.29814 5.12767 5.87671 6.14659 5.87671 7.20902V25.9032C5.87671 26.9656 6.29814 27.9845 7.04828 28.7358C7.79843 29.487 8.81584 29.9091 9.87671 29.9091H23.21C24.2709 29.9091 25.2883 29.487 26.0385 28.7358C26.7886 27.9845 27.21 26.9656 27.21 25.9032V12.5502C27.21 12.5502 27.21 12.5502 27.21 12.4701ZM19.21 7.75649L22.6634 11.2149H20.5434C20.1898 11.2149 19.8506 11.0742 19.6006 10.8238C19.3505 10.5734 19.21 10.2338 19.21 9.87961V7.75649ZM24.5434 25.9032C24.5434 26.2573 24.4029 26.597 24.1529 26.8474C23.9028 27.0978 23.5637 27.2385 23.21 27.2385H9.87671C9.52309 27.2385 9.18395 27.0978 8.9339 26.8474C8.68385 26.597 8.54338 26.2573 8.54338 25.9032V7.20902C8.54338 6.85487 8.68385 6.51524 8.9339 6.26482C9.18395 6.0144 9.52309 5.87372 9.87671 5.87372H16.5434V9.87961C16.5434 10.942 16.9648 11.961 17.7149 12.7122C18.4651 13.4635 19.4825 13.8855 20.5434 13.8855H24.5434V25.9032ZM20.5434 21.8973H12.5434C12.1898 21.8973 11.8506 22.038 11.6006 22.2884C11.3505 22.5388 11.21 22.8784 11.21 23.2326C11.21 23.5867 11.3505 23.9264 11.6006 24.1768C11.8506 24.4272 12.1898 24.5679 12.5434 24.5679H20.5434C20.897 24.5679 21.2361 24.4272 21.4862 24.1768C21.7362 23.9264 21.8767 23.5867 21.8767 23.2326C21.8767 22.8784 21.7362 22.5388 21.4862 22.2884C21.2361 22.038 20.897 21.8973 20.5434 21.8973Z" fill="#7291FF"/>
</svg>
