<svg width="33" height="33" viewBox="0 0 33 33" fill="none" xmlns="http://www.w3.org/2000/svg">
<path d="M29.5769 21.3366L23.5502 15.3144C23.6764 14.6994 23.7389 14.0729 23.7369 13.445C23.7364 11.7234 23.3026 10.0296 22.4755 8.52029C21.6484 7.01098 20.4547 5.73485 19.0048 4.80984C17.5548 3.88484 15.8955 3.34081 14.18 3.22805C12.4646 3.11529 10.7484 3.43743 9.19023 4.1647C8.99281 4.25502 8.82039 4.39224 8.68795 4.56444C8.5555 4.73664 8.46703 4.93861 8.43023 5.15282C8.39356 5.36432 8.40835 5.58155 8.47334 5.7861C8.53833 5.99065 8.6516 6.1765 8.80356 6.32789L14.6036 12.1231L12.2036 14.5266L6.41689 8.71807C6.26445 8.56825 6.0783 8.4573 5.87411 8.39456C5.66992 8.33182 5.45367 8.31912 5.24356 8.35754C5.031 8.39305 4.83021 8.47963 4.65837 8.60986C4.48653 8.74009 4.34877 8.91009 4.25689 9.1053C3.52826 10.6709 3.20687 12.3957 3.32262 14.1192C3.43836 15.8426 3.98749 17.5087 4.91891 18.9626C5.85033 20.4164 7.13379 21.6107 8.64988 22.4343C10.166 23.258 11.8655 23.6842 13.5902 23.6734C14.2172 23.6754 14.8427 23.6128 15.4569 23.4865L21.4702 29.522C21.5942 29.6471 21.7416 29.7465 21.9041 29.8143C22.0666 29.8821 22.2409 29.917 22.4169 29.917C22.5929 29.917 22.7672 29.8821 22.9297 29.8143C23.0921 29.7465 23.2396 29.6471 23.3636 29.522C23.4885 29.3979 23.5877 29.2502 23.6554 29.0875C23.7231 28.9247 23.758 28.7502 23.758 28.5739C23.758 28.3977 23.7231 28.2231 23.6554 28.0604C23.5877 27.8977 23.4885 27.75 23.3636 27.6259L16.8302 21.0829C16.667 20.9205 16.4645 20.8032 16.2425 20.7423C16.0206 20.6815 15.7867 20.6792 15.5636 20.7357C14.9198 20.9084 14.2567 20.9981 13.5902 21.0028C12.593 21.0116 11.6038 20.8227 10.6797 20.447C9.75569 20.0713 8.91499 19.5162 8.20608 18.8137C7.49717 18.1112 6.93406 17.2752 6.54918 16.3538C6.16431 15.4324 5.96528 14.4438 5.96356 13.445C5.96183 12.9977 5.99751 12.5511 6.07023 12.1097L11.2969 17.3574C11.4208 17.4826 11.5683 17.5819 11.7308 17.6497C11.8933 17.7175 12.0675 17.7524 12.2436 17.7524C12.4196 17.7524 12.5939 17.7175 12.7563 17.6497C12.9188 17.5819 13.0663 17.4826 13.1902 17.3574L17.4302 13.0711C17.6705 12.8221 17.8049 12.4894 17.8049 12.1431C17.8049 11.7968 17.6705 11.4641 17.4302 11.2151L12.2436 5.98071C12.6843 5.90862 13.1303 5.87289 13.5769 5.87388C15.5796 5.87742 17.4991 6.67665 18.914 8.09613C20.3289 9.51561 21.1236 11.4393 21.1236 13.445C21.1189 14.1124 21.0293 14.7765 20.8569 15.4213C20.8005 15.6447 20.8027 15.8789 20.8635 16.1012C20.9242 16.3235 21.0414 16.5263 21.2036 16.6898L27.7369 23.2327C27.988 23.4842 28.3285 23.6254 28.6836 23.6254C29.0386 23.6254 29.3792 23.4842 29.6302 23.2327C29.8813 22.9813 30.0224 22.6403 30.0224 22.2847C30.0224 21.9291 29.8813 21.5881 29.6302 21.3366H29.5769Z" fill="#A276FF"/>
</svg>
